<?xml version="1.0" standalone="no"?>
<!DOCTYPE svg PUBLIC "-//W3C//DTD SVG 20010904//EN"
 "http://www.w3.org/TR/2001/REC-SVG-20010904/DTD/svg10.dtd">
<svg version="1.0" xmlns="http://www.w3.org/2000/svg"
 width="700.000000pt" height="700.000000pt" viewBox="0 0 700.000000 700.000000"
 preserveAspectRatio="xMidYMid meet">
<metadata>
Created by potrace 1.11, written by Peter Selinger 2001-2013
</metadata>
<g transform="translate(0.000000,700.000000) scale(0.100000,-0.100000)"
fill="#000000" stroke="none">
<path d="M620 6657 l0 -344 -167 -6 c-91 -4 -231 -7 -310 -7 -89 0 -143 -4
-143 -10 0 -6 110 -10 310 -10 l310 0 0 -555 0 -555 -310 0 c-200 0 -310 -4
-310 -10 0 -6 110 -10 310 -10 l310 0 0 -700 0 -700 -310 0 c-276 0 -310 -2
-310 -16 0 -14 33 -15 305 -12 l305 3 0 -807 0 -808 -305 0 c-272 0 -305 -2
-305 -16 0 -14 30 -15 310 -9 l310 8 0 -309 c0 -170 -3 -454 -7 -632 l-6 -322
-304 0 c-195 0 -303 -4 -303 -10 0 -6 108 -10 305 -10 l305 0 0 -405 c0 -353
2 -405 15 -405 13 0 15 52 15 405 l0 405 670 0 670 0 0 -405 c0 -223 4 -405 8
-405 11 0 22 283 22 578 l0 232 125 0 c77 0 125 4 125 10 0 6 -48 10 -125 10
l-125 0 0 630 0 630 125 0 c77 0 125 4 125 10 0 6 -48 10 -125 10 l-125 0 0
810 0 810 940 0 940 0 0 -625 c0 -410 3 -625 10 -625 7 0 10 214 10 623 l0
624 677 6 c372 4 786 7 920 7 l243 0 0 -630 c0 -413 3 -630 10 -630 7 0 10
217 10 630 l0 630 615 0 c403 0 615 3 615 10 0 7 -212 10 -615 10 l-614 0 6
698 c3 383 8 699 10 702 3 3 277 6 609 8 364 2 604 7 604 13 0 5 -240 9 -610
9 l-610 0 0 555 0 555 610 0 c400 0 610 3 610 10 0 7 -210 10 -610 10 l-610 0
0 340 c0 220 -4 340 -10 340 -6 0 -10 -120 -10 -340 l0 -340 -372 0 c-205 0
-619 -3 -920 -7 l-548 -6 0 346 c0 225 -4 347 -10 347 -6 0 -10 -79 -10 -217
0 -120 -3 -275 -7 -345 l-6 -128 -939 0 -938 0 0 345 c0 223 -4 345 -10 345
-6 0 -10 -122 -10 -345 l0 -345 -677 0 -676 0 7 345 c6 308 5 345 -9 345 -13
0 -15 -40 -15 -343z m5138 -907 c-3 -303 -8 -553 -10 -555 -2 -3 -415 -8 -916
-12 l-912 -6 0 556 0 557 778 3 c427 1 842 3 921 5 l144 2 -5 -550z m-3768
-15 l0 -555 -562 0 c-310 0 -614 -3 -675 -7 -101 -5 -113 -4 -113 10 0 16 53
17 665 17 l665 0 0 535 0 535 -667 2 c-463 2 -587 4 -403 8 146 3 451 7 678 8
l412 2 0 -555z m60 15 l0 -540 905 0 905 0 0 540 c0 473 2 540 15 540 13 0 15
-68 15 -555 l0 -555 -940 0 -940 0 0 555 c0 548 0 555 20 555 20 0 20 -7 20
-540z m-60 -600 c0 -5 -7 -10 -15 -10 -13 0 -15 -83 -15 -689 0 -648 1 -690
18 -694 9 -3 -288 -5 -660 -6 l-678 -1 0 700 0 700 498 3 c273 1 577 3 675 5
113 1 177 -2 177 -8z m1900 -695 l0 -705 -942 2 -943 3 938 2 937 3 0 690 0
690 -935 0 c-617 0 -935 3 -935 10 0 7 320 10 940 10 l940 0 0 -705z m1860 5
c0 -693 0 -700 -20 -700 -20 0 -20 7 -20 700 0 693 0 700 20 700 20 0 20 -7
20 -700z m-1777 -703 l52 -3 -57 -2 -58 -2 2 673 3 672 2 -667 3 -667 53 -4z
m-1986 -2019 c-4 -194 -7 -478 -7 -630 l0 -278 -670 0 -670 0 0 630 0 630 677
0 676 0 -6 -352z"/>
<path d="M2980 1380 l0 -850 505 0 505 0 0 100 0 100 -390 0 -390 0 0 750 0
750 -115 0 -115 0 0 -850z"/>
<path d="M4210 1380 l0 -851 113 3 112 3 0 845 0 845 -112 3 -113 3 0 -851z"/>
<path d="M4860 1380 l0 -851 113 3 112 3 3 403 2 402 315 0 315 0 0 100 0 100
-315 0 -315 0 0 245 0 245 350 0 350 0 0 100 0 100 -465 0 -465 0 0 -850z"/>
<path d="M6130 1380 l0 -850 435 0 435 0 0 100 0 100 -320 0 -320 0 0 305 0
305 320 0 320 0 0 100 0 100 -320 0 -320 0 0 245 0 245 320 0 320 0 0 100 0
100 -435 0 -435 0 0 -850z"/>
</g>
</svg>
